# xmcd
#
# Track frame offsets: 
#        150
#        15492
#        38277
#        66391
#        84847
#        112344
#        129473
#        145511
#        162438
#        175829
#
# Disc length: 2398 seconds
#
# Revision: 0
# Processed by: cddbd v1.5.2PL0 Copyright (c) Steve Scherf et al.
# Submitted via: ExactAudioCopy v0.99pb5
#
DISCID=79095c0a
DTITLE=The Piping Hot Buttery Biscuits Of Blues - Allow To Cool. Serve
DTITLE=Immediately
DYEAR=2005
DGENRE=Blues
TTITLE0=Cross Cut Saw
TTITLE1=Don't Burn Down The Bridge
TTITLE2=Help The Poor
TTITLE3=Make Your Mind Up
TTITLE4=Matchbox Blues
TTITLE5=Paint My Mailbox Blue
TTITLE6=Seventh Son
TTITLE7=Thanks A Lot
TTITLE8=Tonight, You Belong To Me
TTITLE9=Radio Station Candidate
EXTD=
EXTT0=
EXTT1=
EXTT2=
EXTT3=
EXTT4=
EXTT5=
EXTT6=
EXTT7=
EXTT8=
EXTT9=
PLAYORDER=
